# xmcd CD database file
#
# Track frame offsets:
#	150
#	7966
#	19835
#	29483
#	38982
#	48599
#	59663
#	69411
#	80917
#	90601
#	98543
#	110055
#	119408
#	129762
#	138747
#	148219
#	157056
#	165044
#	178124
#	186730
#	195831
#	206734
#	217388
#	228875
#	240940
#	253946
#
# Disc length: 3539 seconds
#
# Revision: 0
# Processed by: cddbd v1.5.2PL0 Copyright (c) Steve Scherf et al.
# Submitted via: CDex 1.51
#
DISCID=7f0dd11a
DTITLE=Marvin Rainwater - Whole Lotta woman
DYEAR=1900
DGENRE=Country
TTITLE0=I Dig You Baby
TTITLE1=Whole Lotta Woman
TTITLE2=Baby Don't Go
TTITLE3=Moanin' The Blues
TTITLE4=Crazy Love (& PATTY RAINWATER)
TTITLE5=Mr. Blues
TTITLE6=Hot And Cold
TTITLE7=Get Off The Stool
TTITLE8=Down In The Cellar
TTITLE9=That's The Way I Feel
TTITLE10=Dance Me Daddy
TTITLE11=Love Me Baby
TTITLE12=(There's Always) A Need For Love
TTITLE13=(Don't Be) Late For Love
TTITLE14=The Last Time
TTITLE15=Young Girls
TTITLE16=Boo Hoo
TTITLE17=Tough Top Cat
TTITLE18=(There's A) Honky Tonk In Your Heart
TTITLE19=I Can't Forget
TTITLE20=Gamblin' Man
TTITLE21=My Brand Of Blues
TTITLE22=The Valley Of The Moon
TTITLE23=Hard Luck Blues
TTITLE24=Oklahoma Hills
TTITLE25=Henryetta, Oklahoma
EXTD=
EXTT0=
EXTT1=
EXTT2=
EXTT3=
EXTT4=
EXTT5=
EXTT6=
EXTT7=
EXTT8=
EXTT9=
EXTT10=
EXTT11=
EXTT12=
EXTT13=
EXTT14=
EXTT15=
EXTT16=
EXTT17=
EXTT18=
EXTT19=
EXTT20=
EXTT21=
EXTT22=
EXTT23=
EXTT24=
EXTT25=
PLAYORDER=
